<svg class="icon icon-logo-light icon-logo-light-dims " viewBox="0 0 90 64" style="fill: rgb(62, 11, 10);">

<path opacity=".75" fill-rule="evenodd" clip-rule="evenodd" d="M0 0h90v64H0V0zm15.56 46.757v-2.428h.25c1.23 0 1.813.227 1.813 1.27 0 1.02-.604 1.158-1.814 1.158h-.25zm-.078 1.07h.15l2.823 3.792h1.553l-2.917-3.853c1.28-.155 1.94-.926 1.94-2.284 0-.793-.31-1.458-.814-1.857-.522-.405-1.198-.472-2.108-.472h-1.92v8.472h1.293v-3.798zm54.76-4.685h-1.376v8.471h1.375V47.5h4.171v4.114h1.375v-8.471h-1.375v3.127h-4.17v-3.127zm-43.168 0h4.731v1.175H28.45v2.123h3.355v1.209H28.45v2.739h3.355v1.23h-4.73v-8.476zm27.948 4.269c0-1.885 1.27-3.2 3.129-3.2.96 0 1.824.333 2.606.988l.072-1.386c-.831-.583-1.719-.877-2.74-.877-1.27 0-2.368.438-3.21 1.27-.844.832-1.293 1.946-1.293 3.188 0 1.23.455 2.373 1.281 3.188.832.82 1.947 1.258 3.25 1.258 1.02 0 1.886-.26 2.635-.792v-1.553c-.832.71-1.73 1.065-2.74 1.065-1.697 0-2.99-1.287-2.99-3.15zm-13.305.876l.865-1.93c.094-.227.2-.531.31-.958.117.427.228.737.322.959l.865 1.93h-2.362zm3.805 3.327h1.458l-4.099-8.804-4.098 8.804h1.447l.982-2.18h3.355l.955 2.18zM62.31 28.04h-1.375v8.471h1.375V28.04zm-14.531 0h1.375v3.127h4.171V28.04h1.376v8.471h-1.376v-4.114h-4.17v4.114h-1.376V28.04zm-8.94 8.471h1.375v-7.296h2.24V28.04h-5.868v1.17h2.252v7.301zm-8.986-8.471h1.375v8.471h-1.375V28.04zm38.708-.328l-.006-.006h.006v.006zm0 8.799v-8.8l5.374 5.174c.344.333.638.676.926 1.031v-5.877h1.27v8.804l-5.485-5.272a6.538 6.538 0 01-.815-.948v5.888h-1.27zm-53.772-8.472l1.598 4.275a18 18 0 01.449 1.336c.19-.62.332-1.038.408-1.264l.052-.155 1.708-4.525 1.792 4.608c.155.404.31.854.45 1.352.093-.404.238-.831.415-1.313l1.592-4.314h1.375l-3.283 8.804-1.93-4.834a12.28 12.28 0 01-.416-1.187c-.117.416-.25.815-.405 1.209l-1.897 4.812-3.272-8.804h1.364zm34.465-15.706H47.88v8.472h1.375v-8.472zm-22.274 0h4.731v1.175h-3.355v2.124h3.355v1.208h-3.355v2.74h3.355v1.23H26.98v-8.477zm-11.425 1.23v5.989H16.719c.938 0 1.659-.045 2.263-.555.638-.543.96-1.364.96-2.44 0-1.075-.322-1.895-.96-2.439-.626-.52-1.409-.554-2.429-.554h-.998zm.488 7.242h-1.864v-8.472h1.864c1.586 0 2.806 0 3.838.793.97.748 1.492 1.93 1.492 3.448 0 1.52-.522 2.69-1.492 3.438-.982.76-2.097.793-3.472.793h-.366zm47.273-4.096v.001c.008.228.014.41.014.551 0 2.407-1.447 3.77-3.91 3.77-1.386 0-2.462-.404-3.283-1.23-.804-.815-1.242-1.957-1.242-3.21 0-1.281.438-2.368 1.292-3.2.832-.803 1.969-1.241 3.233-1.241 1.343 0 2.385.487 3.2 1.48l-1.009.76c-.571-.666-1.281-.982-2.168-.982-1.814 0-3.117 1.27-3.117 3.177 0 1.93 1.292 3.221 3.128 3.221 1.586 0 2.534-.793 2.534-2.051v-.117h-2.04V16.48h3.36v-.011l.005.15.003.09zM39.57 19.757c-.865 0-1.437-.4-1.636-1.16l-1.104.5c.283 1.23 1.231 1.918 2.679 1.918 1.758 0 2.812-1.042 2.812-2.617 0-1.22-.699-1.824-2.19-2.511a44.7 44.7 0 00-.192-.088c-.845-.386-1.423-.65-1.423-1.415 0-.637.46-1.064 1.21-1.064.532 0 .92.25 1.253.77l1.081-.554c-.316-.887-1.181-1.397-2.44-1.397-1.536 0-2.546.96-2.546 2.323 0 1.28.832 1.846 2.335 2.584l.267.127c.734.348 1.236.586 1.236 1.33 0 .755-.51 1.254-1.342 1.254zM68.81 12l.006.005v8.8h1.27v-5.889c.233.333.51.654.816.948l5.485 5.273v-8.804h-1.27v5.876a11.421 11.421 0 00-.927-1.03l-5.374-5.174V12h-.005zM6 6h78v52H6V6zM5 59V5h80v54H5z" fill="#fff"></path></svg>
