<?xml version="1.0" encoding="UTF-8"?>
<svg id="geiger_logo_svg"  width="auto" height="auto" version="1.1" xmlns="http://www.w3.org/2000/svg" xmlns:cc="http://creativecommons.org/ns#" xmlns:dc="http://purl.org/dc/elements/1.1/" xmlns:rdf="http://www.w3.org/1999/02/22-rdf-syntax-ns#">
 <metadata>
  <rdf:RDF>
   <cc:Work rdf:about="">
    <dc:format>image/svg+xml</dc:format>
    <dc:type rdf:resource="http://purl.org/dc/dcmitype/StillImage"/>
    <dc:title/>
   </cc:Work>
  </rdf:RDF>
 </metadata>
 <style>.geiger-logo-outline{fill:none}.geiger-logo-fill{fill:#8c7e78}</style>
 <path class="geiger-logo-outline" d="m0 0h112v20h-112z"/>
 <path id="geiger-logo-path" class="geiger-logo-fill" d="m106.3 10.7c1.2-0.4 2.1-1 2.5-1.4 1-1 1.5-2.3 1.5-3.8 0-1.9-0.8-3.5-2.1-4.5-1.4-1-3-1-4.2-1h-5v20h2v-9.1h3.2l4.6 9.1h2.3zm2-5.2c0 0.9-0.3 1.6-0.9 2.2-0.5 0.5-1.5 1.1-2.9 1.1h-3.5v-6.6h3c1.1 0 2.2 0 3.1 0.7 0.8 0.5 1.2 1.4 1.2 2.6zm-16.8-5.5h-10.5v20h11v-2.1h-8.8v-7h8.6v-2.2h-8.6v-6.6h8.8v-2.1h-0.5m-17.5 9.8v-1h-9.2v2.1h7c-0.4 3.9-3.8 7-7.8 7-4.4 0-7.9-3.5-7.9-7.9 0-4.3 3.5-7.9 7.9-7.9 3 0 5.7 1.7 7 4.2l1.9-1c-1.7-3.1-5.1-5.3-8.9-5.3-5.5 0-10 4.5-10 10s4.5 10 10 10 10-4.5 10-10v-0.2m-26.7-9.8h-1.3v20h2v-20h-0.7m-9.8 0h-10.5v20h11v-2.1h-8.8v-7h8.6v-2.2h-8.6v-6.6h8.8v-2.1h-0.5m-17.5 9.8v-1h-9.2v2.1h7c-0.4 3.9-3.8 7-7.8 7-4.3 0-7.9-3.5-7.9-7.9 0-4.3 3.5-7.9 7.9-7.9 3 0 5.7 1.7 7 4.2l1.9-1c-1.7-3.1-5.1-5.3-8.9-5.3-5.5 0-10 4.5-10 10s4.5 10 10 10 10-4.5 10-10v-0.2"/>
 <g fill="#869ab8" stroke-opacity="0">
  <path d="m8.7592 19.823c-3.7337-0.37891-7.1039-3.1841-8.2396-6.8582-0.52152-1.6872-0.52152-4.2419 0-5.929 0.66863-2.1631 2.085-4.0248 4.0711-5.351 3.0075-2.0084 7.2642-2.1064 10.48-0.24133 1.6457 0.95443 3.8505 3.3658 3.5387 3.8703-0.06713 0.10861-0.45801 0.36887-0.86863 0.57836l-0.74658 0.38088-0.27566-0.53307c-0.46253-0.89444-2.1607-2.3291-3.5177-2.972-1.1801-0.55902-1.4441-0.60915-3.2084-0.60915-1.8338 0-1.989 0.032862-3.3643 0.71259-1.7628 0.87121-3.0116 2.1435-3.8582 3.9305-0.55836 1.1787-0.60915 1.4454-0.60915 3.1985 0 1.7531 0.050791 2.0198 0.60915 3.1985 0.84656 1.7871 2.0954 3.0593 3.8582 3.9305 1.3753 0.67973 1.5305 0.71259 3.3643 0.71259 1.7672 0 2.0272-0.04957 3.2181-0.61367 2.2576-1.0694 4.2029-3.4946 4.484-5.5903l0.10422-0.77699h-6.9357v-2.1108l9.0848 0.10255-0.06679 1.5301c-0.25745 5.898-5.1452 10.047-11.122 9.4402z"/>
  <path d="m27.12 10v-10.047l10.806 0.10159 0.11562 2.0082h-8.8179v6.694h8.6066v2.1038h-8.6066v7.0766h8.8179l-0.11562 2.0082-10.806 0.10159z"/>
  <path d="m46.055 10v-10.041h1.9126v20.082h-1.9126z"/>
  <path d="m62.788 19.821c-4.902-0.55188-8.7002-4.8395-8.7002-9.8212 0-4.4361 2.9071-8.2569 7.2678-9.552 1.3647-0.4053 3.9823-0.40464 5.3552 0.001347 2.2485 0.66489 4.7969 2.5395 5.7924 4.2608l0.34156 0.59058-0.96315 0.48806c-0.52973 0.26844-0.96315 0.41467-0.96315 0.32497 0-0.38176-1.4489-1.9764-2.3757-2.6147-2.0107-1.3848-4.5277-1.7748-6.8324-1.0586-5.7367 1.7828-7.5349 8.9084-3.3145 13.134 4.1792 4.1848 11.181 2.501 13.084-3.1462 0.21742-0.64541 0.39531-1.2623 0.39531-1.3708 0-0.12844-1.2348-0.19729-3.5383-0.19729h-3.5383v-2.1038h9.1804l-0.0033 1.0041c-0.020236 6.1102-5.1666 10.738-11.187 10.06z"/>
  <path d="m81.055 10v-10.041h10.902v2.1038h-8.7979v6.694h8.6066v2.1038h-8.6066v7.0766h8.7979v2.1038h-10.902z"/>
  <path d="m99.033 10v-10.041l2.2473 0.0033979c3.1098 0.0047021 5.4016 0.27303 6.3159 0.73949 1.6052 0.81889 2.5887 2.6028 2.5957 4.708 8e-3 2.3209-1.0553 4.0231-3.0685 4.9136-0.45241 0.20012-0.82257 0.39244-0.82257 0.42737s1.0328 2.0568 2.2951 4.493c1.2623 2.4362 2.2951 4.5122 2.2951 4.6134 0 0.10113-0.45185 0.18194-1.0041 0.17958l-1.0041-0.0043-4.6139-9.0762-3.3233-0.11052v9.1953h-1.9126zm7.3634-1.6029c0.9191-0.42205 1.3176-0.84405 1.7307-1.8327 0.60648-1.4515-0.0727-3.2456-1.5094-3.9871-0.61137-0.31552-1.1423-0.38267-3.1558-0.39915l-2.4207-0.019818-0.1046 6.5984 2.3474-0.0042c1.8663-0.00334 2.5042-0.076206 3.1125-0.3555z"/>
 </g>
</svg>
