<?xml version="1.0" encoding="UTF-8"?>
<svg data-name="Layer 1" version="1.1" viewBox="0 0 127.56 22.04" xmlns="http://www.w3.org/2000/svg" xmlns:cc="http://creativecommons.org/ns#" xmlns:dc="http://purl.org/dc/elements/1.1/" xmlns:rdf="http://www.w3.org/1999/02/22-rdf-syntax-ns#">
 <metadata>
  <rdf:RDF>
   <cc:Work rdf:about="">
    <dc:format>image/svg+xml</dc:format>
    <dc:type rdf:resource="http://purl.org/dc/dcmitype/StillImage"/>
    <dc:title>no_LOGO_45mmWIDE_RGB</dc:title>
   </cc:Work>
  </rdf:RDF>
 </metadata>
 <defs>
  <style>.cls-1{fill:#869ab8;}.cls-2{fill:#869ab8;}</style>
 </defs>
 <title>no_LOGO_45mmWIDE_RGB</title>
 <path class="cls-1" transform="translate(0 -10.24)" d="M117.24,18.91a3.57,3.57,0,0,1,.59-1.81,2.52,2.52,0,0,1,3.68-.33,3.44,3.44,0,0,1,.8,2.14Zm10.32,1.89a9.25,9.25,0,0,0-.87-4.32A5.9,5.9,0,0,0,124.14,14a9.92,9.92,0,0,0-4.56-.87A7.69,7.69,0,0,0,114,15a6.77,6.77,0,0,0-2,5.1A7.22,7.22,0,0,0,113,24a6.17,6.17,0,0,0,2.54,2.39,9.66,9.66,0,0,0,4.2.75,10.2,10.2,0,0,0,4.72-.88,7.27,7.27,0,0,0,2.81-2.9l-5.08-.47a3.4,3.4,0,0,1-.9.85,2.93,2.93,0,0,1-1.44.38,2.44,2.44,0,0,1-1.95-.87,3.32,3.32,0,0,1-.67-1.85h10.33Zm-32,6h5.15V20.37a4.13,4.13,0,0,1,.58-2.54,1.87,1.87,0,0,1,1.52-.71,1.67,1.67,0,0,1,1.32.52,2.7,2.7,0,0,1,.47,1.79v7.39h5.18V18.28a5.53,5.53,0,0,0-1.21-3.93,4.4,4.4,0,0,0-3.35-1.27,5.74,5.74,0,0,0-2.68.58,7.15,7.15,0,0,0-2.18,1.92V13.38h-4.8ZM83.78,17.49a2.33,2.33,0,0,1,1.86-.87,2.25,2.25,0,0,1,1.78.85,4,4,0,0,1,.72,2.6,4.2,4.2,0,0,1-.71,2.72,2.39,2.39,0,0,1-3.66,0A4.06,4.06,0,0,1,83,20.13a4,4,0,0,1,.73-2.64m-3.44,8a8,8,0,0,0,5.24,1.65,7.86,7.86,0,0,0,5.69-2,6.74,6.74,0,0,0,2.06-5.08,6.78,6.78,0,0,0-1.66-4.65,7.7,7.7,0,0,0-6.1-2.34,7.76,7.76,0,0,0-5.61,2,6.73,6.73,0,0,0-2.08,5.07,6.61,6.61,0,0,0,2.46,5.34"/>
 <path class="cls-2" transform="translate(0 -10.24)" d="M71.49,13.38H69.82v1.77h1.67v7.73a8.12,8.12,0,0,0,.28,2.69,2.2,2.2,0,0,0,1,1,3.9,3.9,0,0,0,1.92.39,8.42,8.42,0,0,0,1.72-.2l-.33-2a7.45,7.45,0,0,1-1,.09,1.52,1.52,0,0,1-.78-.16,1,1,0,0,1-.39-.44A4,4,0,0,1,73.76,23V15.16H76V13.38H73.76V10.24H71.49ZM57,10.24V26.82h2.28V19.47A6.57,6.57,0,0,1,59.66,17a3,3,0,0,1,1.27-1.42A3.7,3.7,0,0,1,62.84,15a2.75,2.75,0,0,1,2.09.78,3.52,3.52,0,0,1,.74,2.49v8.52H68V18.31a7.49,7.49,0,0,0-.48-3,3.45,3.45,0,0,0-1.58-1.63,5.43,5.43,0,0,0-2.59-.59,5.09,5.09,0,0,0-4,1.85V10.24ZM8.65,26.82h2.28V18.56a13,13,0,0,0-.13-2.22,4.41,4.41,0,0,0-.71-1.68,3.52,3.52,0,0,0-1.52-1.14,5.62,5.62,0,0,0-2.23-.44,4.83,4.83,0,0,0-4.28,2.21V13.38H0V26.82H2.28V19.48q0-2.58,1.06-3.51a3.69,3.69,0,0,1,2.51-.92,3,3,0,0,1,1.59.41,2.19,2.19,0,0,1,.94,1.1,6.12,6.12,0,0,1,.27,2.08Zm14.19-5.91a5.51,5.51,0,0,1-.37,2.28A3.54,3.54,0,0,1,21,24.77a4.69,4.69,0,0,1-2.34.58,3,3,0,0,1-2-.61,2,2,0,0,1-.37-2.6,2,2,0,0,1,.9-.74,8.63,8.63,0,0,1,2-.46,16.69,16.69,0,0,0,3.72-.86Zm.65,5.91h2.38a5.06,5.06,0,0,1-.58-1.61,32.09,32.09,0,0,1-.15-4v-3a12.71,12.71,0,0,0-.11-2.1,3.58,3.58,0,0,0-.71-1.55,3.68,3.68,0,0,0-1.58-1,8.08,8.08,0,0,0-2.8-.4,9,9,0,0,0-3.05.47,4.38,4.38,0,0,0-2,1.35,5.5,5.5,0,0,0-1,2.31l2.23.3a3.44,3.44,0,0,1,1.13-2A4,4,0,0,1,19.61,15a3.81,3.81,0,0,1,2.59.77,2.51,2.51,0,0,1,.65,2c0,.08,0,.28,0,.6a20.83,20.83,0,0,1-4.06.78,16.38,16.38,0,0,0-2,.34,5.52,5.52,0,0,0-1.64.75,3.73,3.73,0,0,0-1.18,1.31,3.67,3.67,0,0,0-.45,1.8A3.58,3.58,0,0,0,14.68,26a4.89,4.89,0,0,0,3.41,1.08,7,7,0,0,0,2.51-.44A8.49,8.49,0,0,0,23,25.17a4.8,4.8,0,0,0,.46,1.66m13.73,0h2V13.38H37v7.2a7.18,7.18,0,0,1-.37,2.63,2.92,2.92,0,0,1-1.27,1.43,3.75,3.75,0,0,1-1.92.53,2.83,2.83,0,0,1-1.72-.51,2.38,2.38,0,0,1-.91-1.41,13.23,13.23,0,0,1-.14-2.4V13.38H28.35v8.33a11.5,11.5,0,0,0,.14,2.13,4.29,4.29,0,0,0,.7,1.69,3.66,3.66,0,0,0,1.53,1.15,5.44,5.44,0,0,0,2.22.46,4.92,4.92,0,0,0,4.27-2.28Zm7-7a5.48,5.48,0,0,1,1.06-3.66A3.29,3.29,0,0,1,47.83,15a3.39,3.39,0,0,1,2.64,1.25,5.51,5.51,0,0,1,1.09,3.72,5.64,5.64,0,0,1-1.06,3.79,3.47,3.47,0,0,1-5.27,0,5.83,5.83,0,0,1-1.05-3.86m.37-5.9a5.57,5.57,0,0,0-2,2.51,8.92,8.92,0,0,0-.7,3.55,7.69,7.69,0,0,0,1.52,4.8,5.07,5.07,0,0,0,4.29,2,4.68,4.68,0,0,0,3.72-1.76A14.54,14.54,0,0,1,51.21,28,3.11,3.11,0,0,1,50,29.76a4.06,4.06,0,0,1-2.44.63,3.79,3.79,0,0,1-2.32-.63,2.11,2.11,0,0,1-.77-1.49l-2.21-.33a3.66,3.66,0,0,0,1.43,3.26,6.43,6.43,0,0,0,3.89,1.08A7,7,0,0,0,51,31.52a4.67,4.67,0,0,0,2-2.07A11,11,0,0,0,53.69,25V13.38h-2.1V15a4.82,4.82,0,0,0-3.92-1.92,5.46,5.46,0,0,0-3.11.89"/>
 <g fill="#869ab8" stroke-opacity="0">
  <path d="m116.89 16.566c-2.6042-0.68068-4.3253-2.689-4.7725-5.5687-0.42625-2.7447 0.63998-5.4213 2.7059-6.7926 1.5244-1.0119 2.3105-1.21 4.8254-1.2162 2.0398-0.00504 2.3217 0.029246 3.4322 0.41756 2.8682 1.0029 4.1858 2.8807 4.3478 6.1962l0.0767 1.571h-10.333l0.10727 0.49811c0.24785 1.1509 1.0443 2.0174 2.023 2.2011 0.78494 0.14726 1.8627-0.17472 2.435-0.72746l0.47947-0.46306 1.8195 0.16649c1.0007 0.09157 2.1122 0.20459 2.47 0.25116l0.65052 0.08467-0.22191 0.42913c-0.3283 0.63487-1.4629 1.7489-2.2523 2.2115-1.6758 0.98208-5.485 1.3443-7.7929 0.7411zm5.3868-8.3802c-0.33584-2.8443-3.9877-3.1418-4.9058-0.39978-0.32896 0.98253-0.4246 0.94654 2.3928 0.90043l2.5672-0.042022z"/>
  <path d="m95.583 9.8705v-6.667h4.7512v2.1311l0.7685-0.7685c1.0635-1.0635 2.1987-1.5569 3.7732-1.64 2.2612-0.11927 3.7812 0.76452 4.4669 2.5972 0.37761 1.0092 0.37392 0.94134 0.3554 6.5312l-0.0148 4.483h-5.0578v-4.0664c0-4.363-0.0699-4.839-0.78424-5.3393-0.4481-0.31387-1.3908-0.3219-1.9806-0.016872-0.24787 0.12818-0.60653 0.52475-0.79703 0.88127-0.32964 0.61696-0.34865 0.83855-0.39408 4.5948l-0.0477 3.9466h-5.0389z"/>
  <path d="m83.2 16.605c-2.9445-0.79255-4.869-2.8952-5.2649-5.7522-0.5006-3.6124 1.6469-6.7738 5.2535-7.7337 1.0479-0.27891 3.796-0.28437 4.8279-0.0096 4.4413 1.1826 6.4967 5.8165 4.4325 9.9932-0.86382 1.7478-2.4203 2.9515-4.5493 3.5182-1.0486 0.27909-3.6361 0.27032-4.6996-0.01592zm3.7036-3.5808c0.84915-0.5248 1.2318-1.5029 1.2341-3.1542 0.0021-1.5587-0.28514-2.3245-1.1427-3.046-0.39517-0.33252-0.63172-0.40244-1.3614-0.40244-1.104 0-1.8382 0.49745-2.3039 1.5611-0.48975 1.1183-0.44215 2.8831 0.107 3.9673 0.72932 1.4399 2.1587 1.8828 3.467 1.0743z"/>
  <path d="m73.511 16.557c-0.85527-0.28216-1.3516-0.64876-1.6259-1.201-0.2616-0.52659-0.29341-1.0482-0.33681-5.5243l-0.047928-4.9428h-1.6667v-1.6859h1.6859v-3.2186h2.1457v3.2186h2.299v1.6859h-2.316l0.04683 4.5348 0.04683 4.5348 0.45081 0.38756c0.38786 0.33344 0.55176 0.3756 1.1738 0.30194l0.72298-0.08563 0.10679 0.92011c0.05873 0.50606 0.07173 0.95518 0.02887 0.99804-0.14337 0.14337-2.325 0.20484-2.7141 0.07647z"/>
  <path d="m57.113 8.2612v-8.2763h2.1457v4.7751l0.63051-0.5397c1.4657-1.2546 3.2659-1.6129 5.1811-1.0312 0.8194 0.24888 1.2498 0.48533 1.6963 0.93179 1.0509 1.0509 1.1249 1.5057 1.1917 7.3205l0.05853 5.0961h-2.321l-0.0015-4.7895c-0.001471-4.72-0.006787-4.8009-0.3659-5.5722-0.2969-0.63763-0.49783-0.8472-1.0846-1.1313-1.3017-0.63012-3.2913-0.15009-4.2079 1.0153-0.67534 0.85855-0.77721 1.6731-0.77721 6.2141v4.2636h-2.1457z"/>
  <path d="m46.187 21.905c-1.1378-0.20496-2.6137-0.96305-3.0895-1.5869-0.41179-0.53988-0.85172-1.716-0.85172-2.2771 0-0.25776 0.08312-0.27674 0.80464-0.18376 1.0679 0.13762 1.4943 0.30833 1.4943 0.59815 0 0.42238 0.48932 1.0031 1.1346 1.3465 0.9526 0.50694 2.9766 0.48348 3.9095-0.04531 1.3513-0.76592 1.8496-1.8733 1.852-4.1157l8.88e-4 -0.82052-0.54069 0.47473c-1.0984 0.96439-1.6828 1.1665-3.3676 1.1645-1.3024-0.0015-1.6434-0.05649-2.2697-0.36596-1.5105-0.74642-2.7841-2.5186-3.1798-4.4248-0.29272-1.41-0.11235-3.7265 0.39449-5.0667 0.53249-1.408 1.573-2.5956 2.8035-3.1999 0.76919-0.37773 1.0439-0.42821 2.3281-0.42784 1.6484 4.795e-4 2.3606 0.26637 3.4101 1.2731l0.57474 0.55129v-1.5949h1.9924v6.869c0 6.2951-0.02472 6.9631-0.29587 7.9959-0.64514 2.4573-2.3267 3.7004-5.269 3.8953-0.60616 0.04014-1.4321 0.01353-1.8355-0.05912zm3.4754-7.6348c0.67891-0.3965 1.3715-1.3754 1.6903-2.3892 0.37803-1.2019 0.29065-3.6909-0.16499-4.7-0.97655-2.1629-2.9973-3.0092-4.9097-2.0562-1.3086 0.65211-2.0053 1.9922-2.1488 4.1331-0.14176 2.1147 0.58495 4.122 1.7782 4.9116 1.0467 0.69265 2.6671 0.73612 3.755 0.10072z"/>
  <path d="m31.441 16.639c-0.97692-0.32341-1.5294-0.65948-2.0397-1.2407-0.87142-0.99249-0.94892-1.5777-0.94892-7.1646v-5.0299h2.1229l0.04972 4.8662c0.04601 4.5033 0.07258 4.9117 0.35625 5.4772 1.0493 2.0918 4.5919 1.7738 5.6458-0.50669 0.31229-0.67576 0.33436-0.98213 0.3801-5.277l0.04856-4.5596h2.1252v13.334h-1.9924v-1.8311l-0.65138 0.651c-0.94088 0.94034-1.9398 1.3696-3.3335 1.4324-0.68474 0.03088-1.3974-0.03022-1.7625-0.15111z"/>
  <path d="m16.303 16.555c-1.2002-0.39688-1.9122-0.97736-2.3487-1.9149-0.94793-2.0358 0.05328-4.2933 2.2723-5.1236 0.45453-0.17006 1.8223-0.4523 3.0395-0.62719 1.2172-0.17489 2.5235-0.40757 2.9028-0.51707 0.6631-0.19141 0.6915-0.22384 0.73666-0.8412 0.02933-0.40099-0.0688-0.90382-0.2613-1.339-0.2571-0.58122-0.44295-0.75958-1.1198-1.0747-0.90536-0.42149-2.3333-0.50914-3.4171-0.20974-0.73425 0.20284-1.6416 1.0995-1.8576 1.8356-0.090015 0.30687-0.24422 0.51157-0.37394 0.49637-0.12141-0.014229-0.6113-0.070166-1.0886-0.12431l-0.86789-0.098435 0.12792-0.44604c0.23627-0.82383 0.96316-1.9854 1.4974-2.3929 1.1778-0.89835 3.4828-1.3583 5.6108-1.1197 1.8342 0.2057 2.9295 0.79459 3.5019 1.8829 0.31721 0.60307 0.34141 0.90188 0.43658 5.3897 0.08121 3.8297 0.14917 4.8813 0.3504 5.4219 0.1373 0.36886 0.24964 0.69646 0.24964 0.72801s-0.50831 0.05736-1.1296 0.05736h-1.1296l-0.19757-0.72801c-0.10866-0.4004-0.2182-0.75387-0.24342-0.78547-0.02522-0.03161-0.43297 0.19949-0.90612 0.51355-1.7529 1.1635-4.096 1.5754-5.7848 1.017zm3.8233-1.6256c0.96964-0.28795 2.0782-1.2457 2.4144-2.086 0.24089-0.60204 0.52974-3.0491 0.35992-3.0491-0.04404 0-0.38187 0.10688-0.75072 0.23752-0.36886 0.13063-1.4983 0.37662-2.5098 0.54664-2.6796 0.45038-3.3964 0.84063-3.6826 2.0048-0.21988 0.89469 0.5604 2.131 1.5208 2.4096 0.73701 0.21383 1.7999 0.18834 2.648-0.06349z"/>
  <path d="m0.098359 9.8705v-6.667h1.8392v0.81741c0 0.44958 0.035306 0.85272 0.078457 0.89587 0.043151 0.043151 0.40524-0.24577 0.80464-0.64204 1.0435-1.0353 2.1778-1.434 3.7915-1.3326 1.9408 0.12196 3.0449 0.74095 3.7803 2.1195 0.35265 0.66102 0.3585 0.74899 0.40346 6.0733l0.04562 5.4026h-2.1603l-8.548e-4 -4.6363c-5.332e-4 -2.8925-0.06412-4.8641-0.16906-5.2421-0.4656-1.6771-2.6023-2.3978-4.3902-1.481-0.72506 0.37181-1.1746 0.85224-1.5244 1.6292-0.24065 0.53447-0.28123 1.1819-0.32409 5.1706l-0.048998 4.5596h-2.1252z"/>
 </g>
</svg>
